<?xml version="1.0" encoding="UTF-8" standalone="no"?>
<svg
   version="1.1"
   width="48"
   height="48"
   id="svg48"
   sodipodi:docname="oll.svg"
   inkscape:export-filename="oll-inlscape.svg"
   inkscape:export-xdpi="96"
   inkscape:export-ydpi="96"
   xmlns:inkscape="http://www.inkscape.org/namespaces/inkscape"
   xmlns:sodipodi="http://sodipodi.sourceforge.net/DTD/sodipodi-0.dtd"
   xmlns="http://www.w3.org/2000/svg"
   xmlns:svg="http://www.w3.org/2000/svg">
  <defs
     id="defs48" />
  <sodipodi:namedview
     id="namedview48"
     pagecolor="#ffffff"
     bordercolor="#000000"
     borderopacity="0.25"
     inkscape:showpageshadow="2"
     inkscape:pageopacity="0.0"
     inkscape:pagecheckerboard="0"
     inkscape:deskcolor="#d1d1d1" />
  <path
     id="rect33"
     d="m 31.364046,30.734388 c -0.34883,0 -0.629658,0.280828 -0.629658,0.629658 v 7.004943 3.384411 h 2.754753 5.509506 2.754753 v -3.384411 -4.879848 -2.125095 c 0,-0.34883 -0.280827,-0.629658 -0.629658,-0.629658 h -2.754753 z"
     style="fill:#000000;stroke-width:0;stroke-dasharray:none"
     inkscape:label="BR" />
  <path
     id="rect21"
     d="m 21.245248,30.734388 c -1.526132,0 -2.754753,1.228622 -2.754753,2.754753 v 2.754753 5.509506 h 2.754753 5.509506 2.754753 v -8.264259 c 0,-1.526131 -1.228621,-2.754753 -2.754753,-2.754753 h -2.754753 z"
     style="fill:#000000;stroke-width:0;stroke-dasharray:none"
     inkscape:label="BC" />
  <path
     id="rect9"
     d="m 6.2466019,30.734388 v 2.754753 5.509506 2.754753 h 2.7547533 5.5095058 2.754753 v -8.264259 c 0,-1.526131 -1.228621,-2.754753 -2.754753,-2.754753 z"
     style="fill:#000000;stroke-width:0;stroke-dasharray:none"
     inkscape:label="BL" />
  <path
     id="rect29"
     d="m 33.489141,18.490495 c -1.526131,0 -2.754753,1.228621 -2.754753,2.754753 v 2.754753 2.754753 c 0,1.526132 1.228622,2.754753 2.754753,2.754753 h 2.754753 5.509506 v -8.264259 -2.125095 c 0,-0.34883 -0.280827,-0.629658 -0.629658,-0.629658 h -4.879848 z"
     style="fill:#000000;stroke-width:0;stroke-dasharray:none"
     inkscape:label="CR" />
  <path
     id="rect17"
     d="m 21.245248,18.490495 c -1.526132,0 -2.754753,1.228621 -2.754753,2.754753 v 2.754753 2.754753 c 0,1.526132 1.228621,2.754753 2.754753,2.754753 h 2.754753 2.754753 c 1.526132,0 2.754753,-1.228621 2.754753,-2.754753 v -2.754753 -2.754753 c 0,-1.526132 -1.228621,-2.754753 -2.754753,-2.754753 h -2.754753 z"
     style="fill:#000000;stroke-width:0;stroke-dasharray:none"
     inkscape:label="CC" />
  <path
     id="rect5"
     d="m 6.2466019,18.490495 v 2.754753 5.509506 2.754753 h 5.5095061 2.754753 c 1.526132,0 2.754753,-1.228621 2.754753,-2.754753 v -2.754753 -2.754753 c 0,-1.526132 -1.228621,-2.754753 -2.754753,-2.754753 z"
     style="fill:#000000;stroke-width:0;stroke-dasharray:none"
     inkscape:label="CL" />
  <path
     id="rect25"
     d="m 30.734388,6.2466019 v 3.3844112 4.8798479 2.125095 c 0,0.34883 0.280828,0.629658 0.629658,0.629658 h 2.125095 4.879848 3.384411 V 9.0013552 6.8762601 c 0,-0.3488304 -0.280827,-0.6296582 -0.629658,-0.6296582 h -2.125095 z"
     style="fill:#000000;stroke-width:0;stroke-dasharray:none"
     inkscape:label="TR" />
  <path
     id="rect13"
     d="m 18.490495,6.2466019 v 8.2642591 c 0,1.526132 1.228621,2.754753 2.754753,2.754753 h 2.754753 2.754753 c 1.526132,0 2.754753,-1.228621 2.754753,-2.754753 V 11.756108 6.2466019 h -2.754753 z"
     style="fill:#000000;stroke-width:0;stroke-dasharray:none"
     inkscape:label="TC" />
  <path
     id="rect1"
     d="m 6.2466019,6.2466019 v 2.7547533 5.5095058 2.754753 h 3.3844112 4.8798479 2.125095 c 0.34883,0 0.629658,-0.280828 0.629658,-0.629658 V 9.6310131 6.2466019 h -2.754753 z"
     style="fill:#000000;stroke-width:0;stroke-dasharray:none"
     inkscape:label="TL" />
  <path
     id="rect46"
     style="fill:#000000;stroke-width:0;stroke-dasharray:none"
     d="m 31.363499,42.977186 h 9.759696 c 0.348831,0 0.629658,0.280828 0.629658,0.629658 v 2.763498 C 41.752853,46.719173 41.472026,47 41.123195,47 h -9.759696 c -0.348831,0 -0.629658,-0.280827 -0.629658,-0.629658 v -2.763498 c 0,-0.34883 0.280827,-0.629658 0.629658,-0.629658 z"
     inkscape:label="S-BR" />
  <path
     id="rect42"
     style="fill:#000000;stroke-width:0;stroke-dasharray:none"
     d="m 19.120153,42.977186 h 9.759696 c 0.348831,0 0.629658,0.280828 0.629658,0.629658 v 2.763498 C 29.509507,46.719173 29.22868,47 28.879849,47 h -9.759696 c -0.34883,0 -0.629658,-0.280827 -0.629658,-0.629658 v -2.763498 c 0,-0.34883 0.280828,-0.629658 0.629658,-0.629658 z"
     inkscape:label="S-BC" />
  <path
     id="rect38"
     style="fill:#000000;stroke-width:0;stroke-dasharray:none"
     d="m 6.876806,42.977186 h 9.759696 c 0.348831,0 0.629658,0.280828 0.629658,0.629658 v 2.763498 C 17.26616,46.719173 16.985333,47 16.636502,47 H 6.876806 C 6.5279757,47 6.2471483,46.719173 6.2471483,46.370342 v -2.763498 c 0,-0.34883 0.2808274,-0.629658 0.6296577,-0.629658 z"
     inkscape:label="S-BL" />
  <path
     id="rect48"
     style="fill:#000000;stroke-width:0;stroke-dasharray:none"
     d="m 43.606844,30.733841 h 2.763498 C 46.719173,30.733841 47,31.014668 47,31.363499 v 9.759696 c 0,0.348831 -0.280827,0.629658 -0.629658,0.629658 h -2.763498 c -0.34883,0 -0.629658,-0.280827 -0.629658,-0.629658 v -9.759696 c 0,-0.348831 0.280828,-0.629658 0.629658,-0.629658 z"
     inkscape:label="S-RB" />
  <path
     id="rect44"
     style="fill:#000000;stroke-width:0;stroke-dasharray:none"
     d="m 43.606844,18.490495 h 2.763498 C 46.719173,18.490495 47,18.771323 47,19.120153 v 9.759696 c 0,0.348831 -0.280827,0.629658 -0.629658,0.629658 h -2.763498 c -0.34883,0 -0.629658,-0.280827 -0.629658,-0.629658 v -9.759696 c 0,-0.34883 0.280828,-0.629658 0.629658,-0.629658 z"
     inkscape:label="S-RC" />
  <path
     id="rect40"
     style="fill:#000000;stroke-width:0;stroke-dasharray:none"
     d="m 43.606844,6.2471483 h 2.763498 C 46.719173,6.2471483 47,6.5279757 47,6.876806 v 9.759696 c 0,0.348831 -0.280827,0.629658 -0.629658,0.629658 h -2.763498 c -0.34883,0 -0.629658,-0.280827 -0.629658,-0.629658 V 6.876806 c 0,-0.3488303 0.280828,-0.6296577 0.629658,-0.6296577 z"
     inkscape:label="S-RT" />
  <path
     id="rect47"
     style="fill:#000000;stroke-width:0;stroke-dasharray:none"
     d="m 1.6296577,30.733841 h 2.7634982 c 0.3488305,0 0.6296578,0.280827 0.6296578,0.629658 v 9.759696 c 0,0.348831 -0.2808273,0.629658 -0.6296578,0.629658 H 1.6296577 c -0.3488304,0 -0.6296578,-0.280827 -0.6296578,-0.629658 v -9.759696 c 0,-0.348831 0.2808274,-0.629658 0.6296578,-0.629658 z"
     inkscape:label="S-LB" />
  <path
     id="rect43"
     style="fill:#000000;stroke-width:0;stroke-dasharray:none"
     d="m 1.6296577,18.490495 h 2.7634982 c 0.3488305,0 0.6296578,0.280828 0.6296578,0.629658 v 9.759696 c 0,0.348831 -0.2808273,0.629658 -0.6296578,0.629658 H 1.6296577 c -0.3488304,0 -0.6296578,-0.280827 -0.6296578,-0.629658 v -9.759696 c 0,-0.34883 0.2808274,-0.629658 0.6296578,-0.629658 z"
     inkscape:label="S-LC" />
  <path
     id="rect39"
     style="fill:#000000;stroke-width:0;stroke-dasharray:none"
     d="m 1.6296577,6.2471483 h 2.7634982 c 0.3488305,0 0.6296578,0.2808274 0.6296578,0.6296577 v 9.759696 c 0,0.348831 -0.2808273,0.629658 -0.6296578,0.629658 H 1.6296577 c -0.3488304,0 -0.6296578,-0.280827 -0.6296578,-0.629658 V 6.876806 c 0,-0.3488303 0.2808274,-0.6296577 0.6296578,-0.6296577 z"
     inkscape:label="S-LT" />
  <path
     id="rect45"
     style="fill:#000000;stroke-width:0;stroke-dasharray:none"
     d="m 31.363499,0.9999999 h 9.759696 c 0.348831,0 0.629658,0.2808274 0.629658,0.6296578 v 2.7634982 c 0,0.3488305 -0.280827,0.6296578 -0.629658,0.6296578 h -9.759696 c -0.348831,0 -0.629658,-0.2808273 -0.629658,-0.6296578 V 1.6296577 c 0,-0.3488304 0.280827,-0.6296578 0.629658,-0.6296578 z"
     inkscape:label="S-TR" />
  <path
     id="rect41"
     style="fill:#000000;stroke-width:0;stroke-dasharray:none"
     d="m 19.120153,0.9999999 h 9.759696 c 0.348831,0 0.629658,0.2808274 0.629658,0.6296578 v 2.7634982 c 0,0.3488305 -0.280827,0.6296578 -0.629658,0.6296578 h -9.759696 c -0.34883,0 -0.629658,-0.2808273 -0.629658,-0.6296578 V 1.6296577 c 0,-0.3488304 0.280828,-0.6296578 0.629658,-0.6296578 z"
     inkscape:label="S-TC" />
  <path
     id="rect37"
     style="fill:#000000;stroke-width:0;stroke-dasharray:none"
     d="m 6.876806,0.9999999 h 9.759696 c 0.348831,0 0.629658,0.2808274 0.629658,0.6296578 v 2.7634982 c 0,0.3488305 -0.280827,0.6296578 -0.629658,0.6296578 H 6.876806 c -0.3488303,0 -0.6296577,-0.2808273 -0.6296577,-0.6296578 V 1.6296577 c 0,-0.3488304 0.2808274,-0.6296578 0.6296577,-0.6296578 z"
     inkscape:label="S-TL" />
</svg>
